<svg width="7" height="10" viewBox="0 0 7 10" fill="none" xmlns="http://www.w3.org/2000/svg">
<path d="M6.31235 1.39043C6.52798 1.21793 6.56294 0.903283 6.39043 0.687652C6.21793 0.472022 5.90328 0.437061 5.68765 0.609566L6.31235 1.39043ZM1 5L0.687652 4.60957C0.569045 4.70445 0.5 4.84811 0.5 5C0.5 5.15189 0.569045 5.29555 0.687652 5.39043L1 5ZM5.68765 9.39043C5.90328 9.56294 6.21793 9.52798 6.39043 9.31235C6.56294 9.09672 6.52798 8.78207 6.31235 8.60957L5.68765 9.39043ZM5.68765 0.609566L0.687652 4.60957L1.31235 5.39043L6.31235 1.39043L5.68765 0.609566ZM0.687652 5.39043L5.68765 9.39043L6.31235 8.60957L1.31235 4.60957L0.687652 5.39043Z" fill="#FFEBFF"/>
</svg>
